<svg width="117" height="39" viewBox="0 0 117 39" fill="none" xmlns="http://www.w3.org/2000/svg">
<path d="M49.6729 20.4169C49.6729 25.9141 45.3724 29.9649 40.0947 29.9649C34.8171 29.9649 30.5166 25.9141 30.5166 20.4169C30.5166 14.881 34.8171 10.8689 40.0947 10.8689C45.3724 10.8689 49.6729 14.881 49.6729 20.4169ZM45.48 20.4169C45.48 16.9817 42.9876 14.6313 40.0947 14.6313C37.2019 14.6313 34.7095 16.9817 34.7095 20.4169C34.7095 23.8177 37.2019 26.2025 40.0947 26.2025C42.9876 26.2025 45.48 23.8134 45.48 20.4169Z" fill="#2D2D2D"/>
<path d="M70.3358 20.4169C70.3358 25.9141 66.0354 29.9649 60.7577 29.9649C55.48 29.9649 51.1796 25.9141 51.1796 20.4169C51.1796 14.8853 55.48 10.8689 60.7577 10.8689C66.0354 10.8689 70.3358 14.881 70.3358 20.4169ZM66.143 20.4169C66.143 16.9817 63.6505 14.6313 60.7577 14.6313C57.8649 14.6313 55.3724 16.9817 55.3724 20.4169C55.3724 23.8177 57.8649 26.2025 60.7577 26.2025C63.6505 26.2025 66.143 23.8134 66.143 20.4169Z" fill="#2D2D2D"/>
<path d="M90.1378 11.4457V28.5874C90.1378 35.6386 85.9794 38.5185 81.0633 38.5185C76.4357 38.5185 73.6505 35.4234 72.6001 32.8922L76.2506 31.3726C76.9006 32.9266 78.4934 34.7604 81.059 34.7604C84.2058 34.7604 86.1559 32.819 86.1559 29.1642V27.791H86.0095C85.0711 28.949 83.2631 29.9606 80.9815 29.9606C76.2075 29.9606 71.8339 25.8022 71.8339 20.4513C71.8339 15.0618 76.2075 10.8689 80.9815 10.8689C83.2588 10.8689 85.0668 11.8805 86.0095 13.0041H86.1559V11.45H90.1378V11.4457ZM86.4529 20.4513C86.4529 17.0893 84.2101 14.6313 81.356 14.6313C78.4632 14.6313 76.0396 17.0893 76.0396 20.4513C76.0396 23.7789 78.4632 26.2025 81.356 26.2025C84.2101 26.2025 86.4529 23.7789 86.4529 20.4513Z" fill="#2D2D2D"/>
<path d="M96.7026 1.39844V29.3795H92.613V1.39844H96.7026Z" fill="#2D2D2D"/>
<path d="M112.639 23.5593L115.893 25.7289C114.843 27.2829 112.312 29.9605 107.938 29.9605C102.514 29.9605 98.4631 25.7677 98.4631 20.4125C98.4631 14.7345 102.548 10.8645 107.469 10.8645C112.424 10.8645 114.847 14.8077 115.639 16.9386L116.074 18.0234L103.31 23.3096C104.288 25.2253 105.807 26.2024 107.938 26.2024C110.073 26.2024 111.554 25.1521 112.639 23.5593ZM102.622 20.1241L111.154 16.5813C110.684 15.3888 109.272 14.558 107.611 14.558C105.48 14.558 102.514 16.4392 102.622 20.1241Z" fill="#2D2D2D"/>
<path d="M15.0366 17.9331V13.8823H28.6871C28.8205 14.5883 28.8894 15.4234 28.8894 16.3274C28.8894 19.3666 28.0586 23.1247 25.381 25.8022C22.7766 28.5143 19.449 29.9607 15.0409 29.9607C6.87043 29.9607 0 23.3055 0 15.135C0 6.96452 6.87043 0.309326 15.0409 0.309326C19.5609 0.309326 22.7809 2.0829 25.2002 4.39456L22.3418 7.25294C20.607 5.62573 18.2566 4.36013 15.0366 4.36013C9.07018 4.36013 4.40379 9.16857 4.40379 15.135C4.40379 21.1014 9.07018 25.9099 15.0366 25.9099C18.9066 25.9099 21.1107 24.3558 22.5226 22.9439C23.6677 21.7988 24.421 20.163 24.7181 17.9288L15.0366 17.9331Z" fill="#2D2D2D"/>
</svg>
