<svg width="39" height="47" viewBox="0 0 39 47" fill="none" xmlns="http://www.w3.org/2000/svg">
<path fill-rule="evenodd" clip-rule="evenodd" d="M28.5785 0.0238611C26.6017 0.214361 24.281 1.3593 22.6528 2.94736C20.9109 4.64628 19.7338 7.00795 19.5274 9.21795C19.4957 9.55733 19.5103 10.3649 19.5522 10.5905L19.5805 10.743L19.7767 10.7708C20.063 10.8115 20.7676 10.787 21.1295 10.7239C22.5106 10.4831 23.949 9.80336 25.2345 8.78394C25.6232 8.47571 26.3419 7.74832 26.6957 7.30502C27.2107 6.65981 27.648 5.97031 28.001 5.2468C28.5152 4.19306 28.8198 3.19622 28.9864 2.02226C29.0345 1.68297 29.0567 0.625799 29.0214 0.35281C28.9727 -0.0241183 28.9819 -0.00209532 28.8739 0.00142652C28.8218 0.00311883 28.6889 0.013227 28.5785 0.0238611ZM27.6929 11.3344C27.1607 11.3658 26.4388 11.4822 25.8062 11.6385C24.9734 11.8443 24.3486 12.0567 22.879 12.6334C21.6867 13.1013 21.3169 13.2316 20.8372 13.353C20.2287 13.5071 19.695 13.5032 19.037 13.3401C18.5711 13.2246 18.2306 13.1035 17.0061 12.618C15.8277 12.1508 15.3981 11.9952 14.8405 11.8339C13.4827 11.4412 12.3992 11.3539 11.0328 11.5269C9.55948 11.7134 8.13398 12.2017 6.84773 12.9604C4.34706 14.4353 2.47886 16.8175 1.47296 19.8138C0.730016 22.0269 0.469902 24.5356 0.697542 27.2926C0.905994 29.817 1.52312 32.4966 2.48039 35.0338C3.09487 36.6624 3.92586 38.378 4.75118 39.722C5.50575 40.9507 7.02659 43.0136 7.97145 44.09C9.72897 46.0922 11.359 46.945 13.1803 46.815C14.1393 46.7465 14.7473 46.5756 16.2235 45.9597C17.1758 45.5623 17.5735 45.4137 18.066 45.2713C19.5553 44.8406 21.2381 44.8028 22.696 45.1671C23.3062 45.3196 23.6574 45.4466 24.6971 45.8908C25.9867 46.4417 26.4807 46.5974 27.2927 46.7089C27.6533 46.7584 28.4263 46.7776 28.7335 46.7447C30.1527 46.5927 31.4477 45.8881 32.7361 44.5669C33.5224 43.7607 34.3178 42.7472 35.4615 41.0941C36.7223 39.2717 37.8451 37.0471 38.5432 34.9881C38.7553 34.3623 38.7566 34.3564 38.6886 34.3354C38.4584 34.2642 37.5776 33.7807 37.115 33.4717C34.4721 31.7062 32.8764 29.1609 32.5315 26.1606C32.2447 23.665 32.7951 21.2914 34.1305 19.2656C34.9046 18.0912 36.0232 16.9715 37.2236 16.1691C37.3777 16.0662 37.5038 15.9708 37.5038 15.9573C37.5038 15.9185 37.1898 15.4984 36.9173 15.1723C34.9901 12.867 32.2664 11.5423 29.0422 11.3422C28.6951 11.3206 27.9949 11.3166 27.6929 11.3344Z" fill="#2D2D2D"/>
</svg>
