<svg width="65" height="45" viewBox="0 0 65 45" fill="none" xmlns="http://www.w3.org/2000/svg">
<path fill-rule="evenodd" clip-rule="evenodd" d="M34.058 3.20516C31.452 4.70179 29.2945 5.93582 29.2636 5.94744C29.2327 5.95907 32.2136 11.1918 35.8879 17.5757L42.5683 29.1828H48.9881H55.408L55.2526 28.9068C54.8924 28.2666 38.9384 0.692998 38.8706 0.593366C38.8047 0.496397 38.2611 0.791395 34.058 3.20516ZM23.0522 13.3115C20.4267 14.8247 18.2865 16.094 18.2961 16.1322C18.3059 16.1704 20.0083 19.1298 22.0792 22.7085L25.8446 29.2153L25.8448 30.563L25.845 31.9107H27.209H28.5729V30.5472V29.1836L33.5752 29.167L38.5776 29.1504L33.212 19.8627C30.261 14.7544 27.8419 10.5716 27.8362 10.5676C27.8306 10.5635 25.6778 11.7983 23.0522 13.3115ZM11.8201 23.1433C9.23249 24.6423 7.09339 25.8911 7.06657 25.9183C7.03974 25.9456 7.43132 26.6912 7.93682 27.5754L8.85585 29.1828H15.2466C20.3325 29.1828 21.6309 29.1663 21.606 29.1017C21.5292 28.9019 16.6256 20.4485 16.5781 20.434C16.5488 20.4251 14.4077 21.6443 11.8201 23.1433ZM21.7532 31.4902V33.7976L21.2824 33.54C19.623 32.6324 17.6311 32.6078 15.8754 33.4734C14.7291 34.0385 13.9016 34.8554 13.3462 35.97C12.8785 36.9085 12.7596 37.4275 12.7656 38.503C12.7717 39.5892 12.8974 40.1458 13.3381 41.0361C14.3055 42.9905 16.318 44.2501 18.4733 44.2501C19.4025 44.2501 20.3113 44.0213 21.2158 43.5598L21.7532 43.2856V43.6384V43.9912H23.1172H24.4811V36.587V29.1828H23.1172H21.7532V31.4902ZM38.64 31.4804V33.778L38.1691 33.5269C36.1641 32.4576 33.6838 32.6552 31.8811 34.0277C30.8212 34.8346 30.0457 36.06 29.7691 37.3649C29.6621 37.8696 29.65 38.9437 29.7453 39.4816C30.2875 42.5427 33.109 44.6031 36.1947 44.1913C36.8471 44.1042 37.8693 43.7613 38.3299 43.475L38.64 43.2822V43.6367V43.9912H40.0039H41.3679V36.587V29.1828H40.0039H38.64V31.4804ZM5.01892 32.8842C2.82786 33.1936 0.995973 34.7172 0.332453 36.7819C-0.516561 39.4238 0.709872 42.355 3.18794 43.6068C4.87278 44.4579 6.74663 44.4594 8.45492 43.611L9.08817 43.2965V43.6439V43.9912H10.4196H11.7511V38.4706V32.9499H10.4196H9.08817V33.3667V33.7836L8.47155 33.4697C8.10121 33.2811 7.62669 33.1021 7.2833 33.0215C6.61926 32.8657 5.5917 32.8033 5.01892 32.8842ZM47.1946 32.8864C45.7748 33.1108 44.3601 33.9162 43.5171 34.9801C43.0815 35.5298 42.7115 36.2417 42.4964 36.9443C42.3354 37.47 42.3176 37.6235 42.3198 38.4706C42.3224 39.5603 42.4395 40.1099 42.8523 40.9711C43.6007 42.5326 44.9573 43.6382 46.6937 44.102C47.2917 44.2616 48.7678 44.2582 49.3784 44.0957C49.9398 43.9464 50.485 43.7254 50.909 43.4753L51.2401 43.2802V43.6357V43.9912H52.6041H53.968V38.4706V32.9499H52.6041H51.2401V33.38C51.2401 33.7162 51.2224 33.7957 51.1589 33.7438C50.9301 33.5568 49.973 33.1425 49.4925 33.0224C48.8652 32.8657 47.7452 32.7994 47.1946 32.8864ZM59.1964 32.8626C57.22 33.0973 55.8846 34.0164 55.4509 35.4405C55.3389 35.808 55.3206 36.002 55.3454 36.5591C55.3729 37.1764 55.3959 37.2745 55.6191 37.7261C56.2113 38.9244 57.0717 39.3526 59.7876 39.801C61.118 40.0206 61.567 40.1655 61.8239 40.4581C62.2329 40.9239 61.9848 41.6083 61.2748 41.9733C60.9815 42.124 60.8777 42.1402 60.2031 42.1402C59.6189 42.1402 59.3806 42.1122 59.1095 42.0117C58.4778 41.7774 58.0522 41.288 57.9558 40.6848L57.9133 40.419H56.4927H55.0721V40.6327C55.0721 40.9784 55.2537 41.5764 55.5025 42.0499C56.2859 43.5406 58.179 44.3548 60.5654 44.2271C63.2386 44.0842 64.8054 42.8799 64.9865 40.8288C65.1385 39.1071 64.0031 37.8526 61.8809 37.3975C61.4761 37.3107 60.7357 37.1672 60.2356 37.0786C59.1001 36.8775 58.7043 36.7508 58.4132 36.4957C58.1242 36.2424 58.0606 35.93 58.2267 35.5799C58.3164 35.3909 58.4252 35.2965 58.7047 35.1655C59.0388 35.0088 59.1336 34.9958 59.9433 34.9958C60.7822 34.9958 60.8332 35.0035 61.123 35.1738C61.4847 35.3865 61.6919 35.697 61.7518 36.1164L61.7958 36.4247L63.1753 36.4422C64.751 36.4622 64.6224 36.5254 64.4547 35.8137C64.2541 34.9629 63.5732 34.036 62.8067 33.5704C61.9087 33.0248 60.3701 32.7232 59.1964 32.8626ZM25.845 38.4706V43.9912H27.209H28.5729V38.4706V32.9499H27.209H25.845V38.4706ZM6.68947 35.4577C7.9402 35.8288 8.8378 36.8401 9.03349 38.0987C9.18365 39.0646 8.84637 40.0044 8.08841 40.7322C6.60965 42.1522 4.29331 41.8754 3.17385 40.1449C2.83072 39.6144 2.70095 39.0788 2.73375 38.3282C2.75726 37.792 2.78883 37.6593 2.99777 37.2193C3.67071 35.8024 5.27345 35.0376 6.68947 35.4577ZM19.3545 35.4566C19.9391 35.6283 20.4332 35.931 20.8416 36.3675C22.0612 37.6712 22.024 39.5122 20.7535 40.7322C19.5177 41.9188 17.6559 41.9499 16.4029 40.8047C15.8031 40.2565 15.4912 39.6624 15.3882 38.8714C15.194 37.3817 16.2408 35.8571 17.7332 35.4558C18.2032 35.3294 18.9227 35.3298 19.3545 35.4566ZM36.634 35.5751C37.8404 36.0647 38.64 37.2448 38.64 38.5355C38.64 40.0559 37.5333 41.3347 35.9882 41.5996C34.9758 41.7732 33.9965 41.4486 33.2548 40.6936C32.56 39.9862 32.3071 39.3227 32.3509 38.322C32.3738 37.7954 32.4065 37.6578 32.6085 37.2343C33.0114 36.3898 33.6611 35.8073 34.5467 35.4967C35.1373 35.2895 36.0113 35.3224 36.634 35.5751ZM48.9064 35.4577C49.4847 35.6292 49.8822 35.8662 50.2971 36.2869C51.3123 37.3161 51.5246 38.697 50.8673 39.995C50.6245 40.4743 49.9697 41.0965 49.454 41.3379C47.3533 42.3209 44.9355 40.7744 44.9408 38.4511C44.9438 37.1261 45.9892 35.817 47.3432 35.4426C47.7579 35.3279 48.493 35.335 48.9064 35.4577Z" fill="#2D2D2D"/>
</svg>
