<svg width="114" height="19" viewBox="0 0 114 19" fill="none" xmlns="http://www.w3.org/2000/svg">
<path fill-rule="evenodd" clip-rule="evenodd" d="M5.15881 0.729051C3.17078 0.884534 1.74211 1.55597 0.987533 2.6894C0.526377 3.38213 0.32763 4.08667 0.297896 5.13416C0.281036 5.72802 0.310563 6.08933 0.411601 6.52578C0.661968 7.6072 1.38598 8.48904 2.78509 9.41674C3.28416 9.74763 3.63505 9.95423 4.79465 10.5999C6.24707 11.4085 6.68578 11.7007 7.15901 12.1745C7.50572 12.5217 7.65858 12.7664 7.73729 13.1002C7.83081 13.497 7.77044 14.0498 7.59275 14.424C7.34565 14.9443 6.88304 15.1888 6.14758 15.1879C5.29794 15.1869 4.73717 14.8108 4.55769 14.1218C4.52166 13.9834 4.51217 13.7591 4.51217 13.0463V12.1456H2.34153H0.170898V12.8987C0.170898 13.7101 0.201852 14.1429 0.290908 14.5767C0.647635 16.3142 1.87684 17.4471 3.89354 17.8971C5.34004 18.2198 7.20635 18.1842 8.56017 17.8081C9.40981 17.5721 10.0899 17.2047 10.6176 16.6968C11.3053 16.0349 11.6391 15.3174 11.7873 14.1825C11.8595 13.6299 11.8591 12.4621 11.7866 11.997C11.5901 10.7361 10.8627 9.79003 9.31002 8.77592C8.79599 8.44019 8.33817 8.17772 7.17343 7.55097C5.7384 6.77882 5.21679 6.43904 4.83797 6.02977C4.53551 5.70296 4.42297 5.40335 4.42297 4.92489C4.42297 4.00635 4.97621 3.46209 5.90851 3.46355C6.54371 3.46453 7.00688 3.69958 7.2417 4.14013C7.40167 4.44027 7.42617 4.594 7.42617 5.29803V5.93108H9.44814H11.4701L11.4698 5.31409C11.4694 4.11209 11.367 3.51832 11.0514 2.88654C10.4594 1.70158 9.21796 0.997912 7.3202 0.771572C6.85128 0.715641 5.63588 0.691734 5.15881 0.729051ZM57.7671 0.817631C55.5888 0.987208 54.1072 1.75555 53.4165 3.07375C53.2716 3.35035 53.1246 3.7438 53.0566 4.03704C52.8662 4.85849 52.871 5.92683 53.0684 6.67972C53.3337 7.69123 54.1098 8.5944 55.4775 9.48329C55.8863 9.74899 56.316 10.0006 57.2045 10.4945C57.6366 10.7347 58.1923 11.0522 58.4393 11.2C59.4522 11.8062 60.0284 12.345 60.2383 12.882C60.3311 13.1194 60.3513 13.6552 60.2799 13.9812C60.1473 14.5862 59.8275 14.9284 59.2538 15.0792C58.9954 15.1471 58.4441 15.148 58.1916 15.0808C57.7663 14.9676 57.4115 14.7011 57.2523 14.3752C57.1085 14.0809 57.0843 13.8767 57.0837 12.9559L57.0832 12.1159H54.939H52.7949L52.8101 13.0897C52.8228 13.8965 52.8358 14.1196 52.886 14.3906C53.2084 16.1293 54.344 17.2659 56.2465 17.754C57.7511 18.1401 59.7397 18.1203 61.1735 17.705C62.0289 17.4573 62.6421 17.1132 63.1829 16.5773C64.0344 15.7338 64.3516 14.7597 64.3503 12.9931C64.3497 12.2456 64.3172 11.9403 64.1879 11.4649C63.9358 10.5378 63.1084 9.5983 61.7961 8.74905C61.3587 8.46594 60.8393 8.16987 59.7811 7.6003C58.2966 6.80136 57.7891 6.47119 57.4102 6.05763C57.0439 5.65785 56.9195 5.17237 57.039 4.60839C57.1878 3.90588 57.7008 3.52379 58.4956 3.52352C59.0916 3.52334 59.5645 3.77002 59.8 4.204C59.9502 4.48092 59.9732 4.61577 59.989 5.31409L60.0037 5.96082H61.9927H63.9816V5.27808C63.9816 4.90259 63.9668 4.45767 63.9487 4.2894C63.735 2.30452 62.3726 1.1575 59.8783 0.862204C59.3958 0.805113 58.2411 0.78073 57.7671 0.817631ZM106.606 0.805648C106.229 0.843381 105.607 0.94665 105.29 1.02414C104.343 1.25592 103.635 1.6318 103.05 2.21305C102.373 2.88542 102.041 3.60497 101.86 4.7863C101.809 5.12099 101.786 12.8971 101.834 13.5134C101.878 14.0753 101.931 14.377 102.056 14.7772C102.683 16.7808 104.777 17.873 107.826 17.7857C110.916 17.6972 112.791 16.4267 113.164 14.1676C113.263 13.5647 113.282 13.0107 113.282 10.6459V8.3396H110.412H107.543V9.52899V10.7184H108.376H109.208L109.208 12.1233C109.207 13.6576 109.195 13.7965 109.04 14.0824C108.772 14.5746 108.286 14.8444 107.617 14.873C106.724 14.9113 106.088 14.5089 105.886 13.7779C105.837 13.6003 105.833 13.3101 105.833 9.36545C105.833 5.38747 105.836 5.12976 105.887 4.91255C106.075 4.11373 106.637 3.69194 107.513 3.69194C108.048 3.69194 108.414 3.82491 108.721 4.13091C109.081 4.48948 109.148 4.72353 109.17 5.70064L109.186 6.40684H111.219H113.252V5.89079C113.252 4.10362 112.921 3.06909 112.078 2.2289C111.347 1.49918 110.434 1.09419 109.015 0.8705C108.696 0.820189 108.462 0.808206 107.677 0.801664C107.154 0.797323 106.672 0.799106 106.606 0.805648ZM68.1273 1.24319C68.1188 1.26541 68.1168 4.10552 68.1228 7.5546C68.1326 13.1424 68.139 13.8601 68.1818 14.1419C68.3477 15.2338 68.67 15.9214 69.3159 16.5617C70.1789 17.4172 71.3704 17.8418 73.2065 17.9484C74.4447 18.0202 75.7087 17.8751 76.6393 17.5542C78.3558 16.9623 79.2918 15.7284 79.4425 13.8585C79.4626 13.6097 79.4734 11.3203 79.4734 7.33917V1.20326H77.4371H75.4009L75.3929 7.51446L75.3849 13.8257L75.3185 14.0211C75.1498 14.517 74.819 14.8356 74.3132 14.9893C74.0447 15.0709 73.4867 15.0625 73.2303 14.9731C72.7738 14.8139 72.4889 14.5385 72.297 14.0708L72.233 13.9149L72.2182 7.56649L72.2033 1.21813L70.173 1.21049C68.4856 1.20412 68.1402 1.20965 68.1273 1.24319ZM17.4641 1.31477C17.4126 1.56148 14.503 17.394 14.503 17.4278C14.503 17.4614 14.8642 17.4682 16.6723 17.4682H18.8416L18.8584 17.3715C18.893 17.1725 21.0447 2.78592 21.0447 2.75354C21.0447 2.73493 21.0714 2.71973 21.1042 2.71973C21.1369 2.71973 21.1636 2.7365 21.1636 2.75699C21.1636 2.79333 23.2573 17.1798 23.2905 17.3715L23.3072 17.4682H25.4771H27.6469L27.6314 17.4013C27.6118 17.3165 24.6723 1.27207 24.6723 1.24962C24.6723 1.24049 23.0543 1.233 21.0768 1.233H17.4812L17.4641 1.31477ZM31.2325 1.44845C31.2181 1.63887 30.8835 16.9691 30.8859 17.3269L30.8869 17.4682H32.9088H34.9308L34.931 16.2267C34.9316 13.1446 35.0227 2.8836 35.0497 2.8566C35.0655 2.84075 35.0866 2.83585 35.0964 2.84572C35.1063 2.85559 35.7154 6.11957 36.45 10.099C37.1846 14.0785 37.7925 17.3645 37.8009 17.4013L37.8162 17.4682H39.8632H41.9103L41.9411 17.3121C41.958 17.2262 42.564 13.9446 43.2877 10.0196C44.0114 6.09462 44.6149 2.87058 44.6288 2.85503C44.6448 2.83718 44.6636 2.83718 44.6799 2.85503C44.6992 2.87617 44.8085 15.5452 44.8036 17.1931L44.8027 17.4682H46.826H48.8492L48.8314 16.9404C48.8216 16.6501 48.7479 13.2815 48.6678 9.45465C48.5876 5.62779 48.5132 2.2124 48.5026 1.86486L48.4833 1.233L45.1934 1.23302L41.9036 1.23308L40.9079 7.43635C39.9691 13.2853 39.8912 13.7325 39.8245 13.6584C39.819 13.6522 39.3671 10.8574 38.8203 7.44756L37.8261 1.24786L34.5375 1.24031L31.2488 1.23273L31.2325 1.44845ZM83.9931 9.27624V17.3195H85.9705H87.9478L87.9476 16.9552C87.9475 16.7549 87.9007 13.848 87.8437 10.4954C87.7867 7.14277 87.74 4.32951 87.7399 4.24364C87.7396 3.99839 87.8102 4.03772 87.8999 4.33284C87.9409 4.46778 88.3503 5.82255 88.8098 7.34348C89.2693 8.86442 90.1353 11.7313 90.7343 13.7143L91.8236 17.3198L94.6953 17.3122L97.567 17.3046L97.5745 9.26881L97.582 1.233H95.5741H93.5663L93.5833 1.83512C93.5927 2.16631 93.6392 4.80562 93.6868 7.7003C93.7343 10.595 93.7797 13.1942 93.7878 13.4763C93.8012 13.9491 93.7983 13.9892 93.7507 13.9892C93.7076 13.9892 93.3954 12.9449 91.8596 7.66313C90.8478 4.18378 90.0139 1.31364 90.0064 1.28503C89.9934 1.23591 89.8247 1.233 86.9929 1.233H83.9931V9.27624Z" fill="#2D2D2D"/>
</svg>
