<svg width="47" height="20" viewBox="0 0 47 20" fill="none" xmlns="http://www.w3.org/2000/svg">
<path d="M0.29 15V0.25H2.93V14.21L1.74 12.82H8.52V15H0.29ZM15.8525 15.21C14.7325 15.21 13.7458 14.9767 12.8925 14.51C12.0392 14.0367 11.3692 13.3833 10.8825 12.55C10.4025 11.7167 10.1625 10.7633 10.1625 9.69C10.1625 8.61 10.4025 7.66 10.8825 6.84C11.3692 6.01333 12.0392 5.36667 12.8925 4.9C13.7458 4.43333 14.7325 4.2 15.8525 4.2C16.9725 4.2 17.9592 4.43333 18.8125 4.9C19.6658 5.36667 20.3325 6.01333 20.8125 6.84C21.2992 7.66 21.5425 8.61 21.5425 9.69C21.5425 10.7633 21.2992 11.7167 20.8125 12.55C20.3325 13.3833 19.6658 14.0367 18.8125 14.51C17.9592 14.9767 16.9725 15.21 15.8525 15.21ZM15.8525 13.06C16.4592 13.06 16.9892 12.92 17.4425 12.64C17.8958 12.36 18.2492 11.97 18.5025 11.47C18.7558 10.9633 18.8825 10.37 18.8825 9.69C18.8825 9.01 18.7558 8.42333 18.5025 7.93C18.2492 7.43 17.8958 7.04333 17.4425 6.77C16.9892 6.49667 16.4592 6.36 15.8525 6.36C15.2525 6.36 14.7225 6.49667 14.2625 6.77C13.8092 7.04333 13.4558 7.43 13.2025 7.93C12.9492 8.42333 12.8225 9.01 12.8225 9.69C12.8225 10.37 12.9492 10.9633 13.2025 11.47C13.4558 11.97 13.8092 12.36 14.2625 12.64C14.7225 12.92 15.2525 13.06 15.8525 13.06ZM30.8584 13.95C31.4851 14.01 32.0351 14.1267 32.5084 14.3C32.9818 14.4733 33.3518 14.73 33.6184 15.07C33.8851 15.4167 34.0184 15.8767 34.0184 16.45C34.0184 17.09 33.8018 17.6433 33.3684 18.11C32.9351 18.5767 32.2984 18.9367 31.4584 19.19C30.6251 19.4433 29.5984 19.57 28.3784 19.57C26.6051 19.57 25.2418 19.3133 24.2884 18.8C23.3351 18.2933 22.8584 17.6033 22.8584 16.73C22.8584 16.4833 22.8884 16.26 22.9484 16.06C23.0084 15.86 23.0818 15.6933 23.1684 15.56L25.5784 15.91C25.5384 15.9633 25.4984 16.0467 25.4584 16.16C25.4184 16.28 25.3984 16.4233 25.3984 16.59C25.3984 17.0033 25.6751 17.3 26.2284 17.48C26.7884 17.6667 27.5318 17.76 28.4584 17.76C29.1384 17.76 29.7051 17.7133 30.1584 17.62C30.6184 17.5267 30.9651 17.3933 31.1984 17.22C31.4384 17.0467 31.5584 16.8433 31.5584 16.61C31.5584 16.2633 31.4018 16.04 31.0884 15.94C30.7751 15.84 30.4018 15.7733 29.9684 15.74L25.9384 15.37C25.2184 15.2967 24.6251 15.0833 24.1584 14.73C23.6984 14.3767 23.4684 13.91 23.4684 13.33C23.4684 12.9767 23.5618 12.65 23.7484 12.35C23.9418 12.05 24.1618 11.8 24.4084 11.6C24.6551 11.3933 24.8651 11.2667 25.0384 11.22L26.5384 11.96C26.3984 11.98 26.2318 12.07 26.0384 12.23C25.8518 12.39 25.7584 12.58 25.7584 12.8C25.7584 13.0067 25.8518 13.18 26.0384 13.32C26.2251 13.4533 26.5851 13.5467 27.1184 13.6L30.8584 13.95ZM32.0484 4.38H34.4084L33.4484 8.5C33.2684 9.27333 32.9784 9.96667 32.5784 10.58C32.1784 11.1933 31.6451 11.6767 30.9784 12.03C30.3118 12.3833 29.4718 12.56 28.4584 12.56C27.4051 12.56 26.4951 12.39 25.7284 12.05C24.9684 11.7033 24.3818 11.22 23.9684 10.6C23.5551 9.97333 23.3484 9.25333 23.3484 8.44C23.3484 7.60667 23.5584 6.87333 23.9784 6.24C24.4051 5.6 24.9884 5.1 25.7284 4.74C26.4751 4.38 27.3184 4.2 28.2584 4.2C29.0184 4.2 29.7018 4.32667 30.3084 4.58C30.9151 4.82667 31.3984 5.15 31.7584 5.55C32.1251 5.95 32.3218 6.37667 32.3484 6.83L31.7584 6.94L32.0484 4.38ZM28.4484 10.53C28.9618 10.53 29.4051 10.4467 29.7784 10.28C30.1518 10.1133 30.4418 9.87333 30.6484 9.56C30.8551 9.24 30.9584 8.85333 30.9584 8.4C30.9584 7.95333 30.8551 7.57 30.6484 7.25C30.4418 6.93 30.1518 6.68667 29.7784 6.52C29.4051 6.34667 28.9651 6.26 28.4584 6.26C27.9651 6.26 27.5284 6.34667 27.1484 6.52C26.7684 6.69333 26.4684 6.94333 26.2484 7.27C26.0351 7.59 25.9284 7.97333 25.9284 8.42C25.9284 8.86667 26.0318 9.25 26.2384 9.57C26.4518 9.88333 26.7451 10.1233 27.1184 10.29C27.4984 10.45 27.9418 10.53 28.4484 10.53ZM40.9697 15.21C39.8497 15.21 38.863 14.9767 38.0097 14.51C37.1564 14.0367 36.4864 13.3833 35.9997 12.55C35.5197 11.7167 35.2797 10.7633 35.2797 9.69C35.2797 8.61 35.5197 7.66 35.9997 6.84C36.4864 6.01333 37.1564 5.36667 38.0097 4.9C38.863 4.43333 39.8497 4.2 40.9697 4.2C42.0897 4.2 43.0764 4.43333 43.9297 4.9C44.783 5.36667 45.4497 6.01333 45.9297 6.84C46.4164 7.66 46.6597 8.61 46.6597 9.69C46.6597 10.7633 46.4164 11.7167 45.9297 12.55C45.4497 13.3833 44.783 14.0367 43.9297 14.51C43.0764 14.9767 42.0897 15.21 40.9697 15.21ZM40.9697 13.06C41.5764 13.06 42.1064 12.92 42.5597 12.64C43.013 12.36 43.3664 11.97 43.6197 11.47C43.873 10.9633 43.9997 10.37 43.9997 9.69C43.9997 9.01 43.873 8.42333 43.6197 7.93C43.3664 7.43 43.013 7.04333 42.5597 6.77C42.1064 6.49667 41.5764 6.36 40.9697 6.36C40.3697 6.36 39.8397 6.49667 39.3797 6.77C38.9264 7.04333 38.573 7.43 38.3197 7.93C38.0664 8.42333 37.9397 9.01 37.9397 9.69C37.9397 10.37 38.0664 10.9633 38.3197 11.47C38.573 11.97 38.9264 12.36 39.3797 12.64C39.8397 12.92 40.3697 13.06 40.9697 13.06Z" fill="#2D2D2D"/>
</svg>
