<svg width="124" height="21" viewBox="0 0 124 21" fill="none" xmlns="http://www.w3.org/2000/svg">
<path d="M9.10326 2.64487C9.47008 1.90162 10.5299 1.90162 10.8967 2.64487L12.7063 6.31135C12.8519 6.6065 13.1335 6.81107 13.4592 6.8584L17.5054 7.44634C18.3256 7.56553 18.6531 8.5735 18.0596 9.15204L15.1318 12.006C14.8961 12.2357 14.7885 12.5667 14.8442 12.8911L15.5353 16.921C15.6754 17.7379 14.818 18.3609 14.0844 17.9752L10.4653 16.0725C10.174 15.9194 9.82598 15.9194 9.53466 16.0725L5.91562 17.9752C5.18199 18.3609 4.32456 17.7379 4.46467 16.921L5.15585 12.8911C5.21148 12.5667 5.10393 12.2357 4.86825 12.006L1.94038 9.15204C1.34687 8.5735 1.67438 7.56553 2.4946 7.44634L6.54081 6.8584C6.86652 6.81107 7.14808 6.6065 7.29374 6.31135L9.10326 2.64487Z" fill="#2D2D2D"/>
<path d="M35.1033 2.64487C35.4701 1.90162 36.5299 1.90162 36.8967 2.64487L38.7063 6.31135C38.8519 6.6065 39.1335 6.81107 39.4592 6.8584L43.5054 7.44634C44.3256 7.56553 44.6531 8.5735 44.0596 9.15204L41.1318 12.006C40.8961 12.2357 40.7885 12.5667 40.8442 12.8911L41.5353 16.921C41.6754 17.7379 40.818 18.3609 40.0844 17.9752L36.4653 16.0725C36.174 15.9194 35.826 15.9194 35.5347 16.0725L31.9156 17.9752C31.182 18.3609 30.3246 17.7379 30.4647 16.921L31.1558 12.8911C31.2115 12.5667 31.1039 12.2357 30.8682 12.006L27.9404 9.15204C27.3469 8.5735 27.6744 7.56553 28.4946 7.44634L32.5408 6.8584C32.8665 6.81107 33.1481 6.6065 33.2937 6.31135L35.1033 2.64487Z" fill="#2D2D2D"/>
<path d="M61.1033 2.64487C61.4701 1.90162 62.5299 1.90162 62.8967 2.64487L64.7063 6.31135C64.8519 6.6065 65.1335 6.81107 65.4592 6.8584L69.5054 7.44634C70.3256 7.56553 70.6531 8.5735 70.0596 9.15204L67.1318 12.006C66.8961 12.2357 66.7885 12.5667 66.8442 12.8911L67.5353 16.921C67.6754 17.7379 66.818 18.3609 66.0844 17.9752L62.4653 16.0725C62.174 15.9194 61.826 15.9194 61.5347 16.0725L57.9156 17.9752C57.182 18.3609 56.3246 17.7379 56.4647 16.921L57.1558 12.8911C57.2115 12.5667 57.1039 12.2357 56.8682 12.006L53.9404 9.15204C53.3469 8.5735 53.6744 7.56553 54.4946 7.44634L58.5408 6.8584C58.8665 6.81107 59.1481 6.6065 59.2937 6.31135L61.1033 2.64487Z" fill="#2D2D2D"/>
<path d="M87.1033 2.64487C87.4701 1.90162 88.5299 1.90162 88.8967 2.64487L90.7063 6.31135C90.8519 6.6065 91.1335 6.81107 91.4592 6.8584L95.5054 7.44634C96.3256 7.56553 96.6531 8.5735 96.0596 9.15204L93.1318 12.006C92.8961 12.2357 92.7885 12.5667 92.8442 12.8911L93.5353 16.921C93.6754 17.7379 92.818 18.3609 92.0844 17.9752L88.4653 16.0725C88.174 15.9194 87.826 15.9194 87.5347 16.0725L83.9156 17.9752C83.182 18.3609 82.3246 17.7379 82.4647 16.921L83.1558 12.8911C83.2115 12.5667 83.1039 12.2357 82.8682 12.006L79.9404 9.15204C79.3469 8.5735 79.6744 7.56553 80.4946 7.44634L84.5408 6.8584C84.8665 6.81107 85.1481 6.6065 85.2937 6.31135L87.1033 2.64487Z" fill="#2D2D2D"/>
<path d="M113.103 2.64487C113.47 1.90162 114.53 1.90162 114.897 2.64487L116.706 6.31135C116.852 6.6065 117.133 6.81107 117.459 6.8584L121.505 7.44634C122.326 7.56553 122.653 8.5735 122.06 9.15204L119.132 12.006C118.896 12.2357 118.789 12.5667 118.844 12.8911L119.535 16.921C119.675 17.7379 118.818 18.3609 118.084 17.9752L114.465 16.0725C114.174 15.9194 113.826 15.9194 113.535 16.0725L109.916 17.9752C109.182 18.3609 108.325 17.7379 108.465 16.921L109.156 12.8911C109.211 12.5667 109.104 12.2357 108.868 12.006L105.94 9.15204C105.347 8.5735 105.674 7.56553 106.495 7.44634L110.541 6.8584C110.867 6.81107 111.148 6.6065 111.294 6.31135L113.103 2.64487Z" fill="#2D2D2D"/>
</svg>
